<svg width="178" height="32" viewBox="0 0 178 32" fill="none" xmlns="http://www.w3.org/2000/svg">
<mask id="path-1-outside-1_3418_16630" maskUnits="userSpaceOnUse" x="116" y="8" width="62" height="14" fill="black">
<rect fill="white" x="116" y="8" width="62" height="14"/>
<path d="M121.548 16.6765H118.572V14.7995H121.548C122.008 14.7995 122.382 14.7246 122.671 14.5749C122.96 14.4198 123.171 14.2059 123.305 13.9332C123.439 13.6604 123.505 13.3529 123.505 13.0107C123.505 12.6631 123.439 12.3396 123.305 12.0401C123.171 11.7406 122.96 11.5 122.671 11.3182C122.382 11.1364 122.008 11.0455 121.548 11.0455H119.406V20.8396H117V9.16043H121.548C122.463 9.16043 123.246 9.3262 123.898 9.65775C124.556 9.98396 125.059 10.4358 125.406 11.0134C125.754 11.5909 125.928 12.2513 125.928 12.9947C125.928 13.7487 125.754 14.4011 125.406 14.9519C125.059 15.5027 124.556 15.9278 123.898 16.2273C123.246 16.5267 122.463 16.6765 121.548 16.6765ZM137.182 14.7273V15.2807C137.182 16.1684 137.061 16.9652 136.821 17.6711C136.58 18.377 136.241 18.9786 135.802 19.4759C135.364 19.9679 134.84 20.3449 134.23 20.607C133.626 20.869 132.955 21 132.217 21C131.484 21 130.813 20.869 130.203 20.607C129.599 20.3449 129.075 19.9679 128.631 19.4759C128.187 18.9786 127.842 18.377 127.596 17.6711C127.356 16.9652 127.235 16.1684 127.235 15.2807V14.7273C127.235 13.8342 127.356 13.0374 127.596 12.3369C127.837 11.631 128.176 11.0294 128.615 10.5321C129.059 10.0348 129.583 9.65508 130.187 9.39305C130.797 9.13102 131.468 9 132.201 9C132.939 9 133.61 9.13102 134.214 9.39305C134.824 9.65508 135.348 10.0348 135.786 10.5321C136.23 11.0294 136.572 11.631 136.813 12.3369C137.059 13.0374 137.182 13.8342 137.182 14.7273ZM134.751 15.2807V14.7112C134.751 14.0909 134.695 13.5455 134.583 13.0749C134.471 12.6043 134.305 12.2086 134.086 11.8877C133.866 11.5668 133.599 11.3262 133.283 11.1658C132.968 11 132.607 10.9171 132.201 10.9171C131.794 10.9171 131.433 11 131.118 11.1658C130.807 11.3262 130.543 11.5668 130.324 11.8877C130.11 12.2086 129.947 12.6043 129.834 13.0749C129.722 13.5455 129.666 14.0909 129.666 14.7112V15.2807C129.666 15.8957 129.722 16.4412 129.834 16.9171C129.947 17.3877 130.112 17.7861 130.332 18.1123C130.551 18.4332 130.818 18.6765 131.134 18.8422C131.449 19.008 131.81 19.0909 132.217 19.0909C132.623 19.0909 132.984 19.008 133.299 18.8422C133.615 18.6765 133.88 18.4332 134.094 18.1123C134.307 17.7861 134.471 17.3877 134.583 16.9171C134.695 16.4412 134.751 15.8957 134.751 15.2807ZM138.914 9.16043H143.27C144.163 9.16043 144.93 9.29412 145.572 9.5615C146.219 9.82888 146.717 10.2246 147.064 10.7487C147.412 11.2727 147.586 11.9171 147.586 12.6818C147.586 13.3075 147.479 13.8449 147.265 14.2941C147.056 14.738 146.759 15.1096 146.374 15.4091C145.995 15.7032 145.548 15.9385 145.035 16.115L144.273 16.516H140.487L140.471 14.639H143.286C143.709 14.639 144.059 14.5642 144.337 14.4144C144.615 14.2647 144.824 14.0561 144.963 13.7888C145.107 13.5214 145.179 13.2112 145.179 12.8583C145.179 12.484 145.11 12.1604 144.971 11.8877C144.832 11.615 144.62 11.4064 144.337 11.262C144.053 11.1176 143.698 11.0455 143.27 11.0455H141.321V20.8396H138.914V9.16043ZM145.444 20.8396L142.781 15.6337L145.324 15.6176L148.019 20.7273V20.8396H145.444ZM154.179 9.16043V20.8396H151.781V9.16043H154.179ZM157.773 9.16043V11.0455H148.243V9.16043H157.773ZM163.027 11.1578L159.85 20.8396H157.291L161.631 9.16043H163.259L163.027 11.1578ZM165.666 20.8396L162.481 11.1578L162.225 9.16043H163.869L168.233 20.8396H165.666ZM165.521 16.492V18.377H159.353V16.492H165.521ZM176.824 18.9626V20.8396H170.944V18.9626H176.824ZM171.722 9.16043V20.8396H169.316V9.16043H171.722Z"/>
</mask>
<path d="M121.548 16.6765H118.572V14.7995H121.548C122.008 14.7995 122.382 14.7246 122.671 14.5749C122.96 14.4198 123.171 14.2059 123.305 13.9332C123.439 13.6604 123.505 13.3529 123.505 13.0107C123.505 12.6631 123.439 12.3396 123.305 12.0401C123.171 11.7406 122.96 11.5 122.671 11.3182C122.382 11.1364 122.008 11.0455 121.548 11.0455H119.406V20.8396H117V9.16043H121.548C122.463 9.16043 123.246 9.3262 123.898 9.65775C124.556 9.98396 125.059 10.4358 125.406 11.0134C125.754 11.5909 125.928 12.2513 125.928 12.9947C125.928 13.7487 125.754 14.4011 125.406 14.9519C125.059 15.5027 124.556 15.9278 123.898 16.2273C123.246 16.5267 122.463 16.6765 121.548 16.6765ZM137.182 14.7273V15.2807C137.182 16.1684 137.061 16.9652 136.821 17.6711C136.58 18.377 136.241 18.9786 135.802 19.4759C135.364 19.9679 134.84 20.3449 134.23 20.607C133.626 20.869 132.955 21 132.217 21C131.484 21 130.813 20.869 130.203 20.607C129.599 20.3449 129.075 19.9679 128.631 19.4759C128.187 18.9786 127.842 18.377 127.596 17.6711C127.356 16.9652 127.235 16.1684 127.235 15.2807V14.7273C127.235 13.8342 127.356 13.0374 127.596 12.3369C127.837 11.631 128.176 11.0294 128.615 10.5321C129.059 10.0348 129.583 9.65508 130.187 9.39305C130.797 9.13102 131.468 9 132.201 9C132.939 9 133.61 9.13102 134.214 9.39305C134.824 9.65508 135.348 10.0348 135.786 10.5321C136.23 11.0294 136.572 11.631 136.813 12.3369C137.059 13.0374 137.182 13.8342 137.182 14.7273ZM134.751 15.2807V14.7112C134.751 14.0909 134.695 13.5455 134.583 13.0749C134.471 12.6043 134.305 12.2086 134.086 11.8877C133.866 11.5668 133.599 11.3262 133.283 11.1658C132.968 11 132.607 10.9171 132.201 10.9171C131.794 10.9171 131.433 11 131.118 11.1658C130.807 11.3262 130.543 11.5668 130.324 11.8877C130.11 12.2086 129.947 12.6043 129.834 13.0749C129.722 13.5455 129.666 14.0909 129.666 14.7112V15.2807C129.666 15.8957 129.722 16.4412 129.834 16.9171C129.947 17.3877 130.112 17.7861 130.332 18.1123C130.551 18.4332 130.818 18.6765 131.134 18.8422C131.449 19.008 131.81 19.0909 132.217 19.0909C132.623 19.0909 132.984 19.008 133.299 18.8422C133.615 18.6765 133.88 18.4332 134.094 18.1123C134.307 17.7861 134.471 17.3877 134.583 16.9171C134.695 16.4412 134.751 15.8957 134.751 15.2807ZM138.914 9.16043H143.27C144.163 9.16043 144.93 9.29412 145.572 9.5615C146.219 9.82888 146.717 10.2246 147.064 10.7487C147.412 11.2727 147.586 11.9171 147.586 12.6818C147.586 13.3075 147.479 13.8449 147.265 14.2941C147.056 14.738 146.759 15.1096 146.374 15.4091C145.995 15.7032 145.548 15.9385 145.035 16.115L144.273 16.516H140.487L140.471 14.639H143.286C143.709 14.639 144.059 14.5642 144.337 14.4144C144.615 14.2647 144.824 14.0561 144.963 13.7888C145.107 13.5214 145.179 13.2112 145.179 12.8583C145.179 12.484 145.11 12.1604 144.971 11.8877C144.832 11.615 144.62 11.4064 144.337 11.262C144.053 11.1176 143.698 11.0455 143.27 11.0455H141.321V20.8396H138.914V9.16043ZM145.444 20.8396L142.781 15.6337L145.324 15.6176L148.019 20.7273V20.8396H145.444ZM154.179 9.16043V20.8396H151.781V9.16043H154.179ZM157.773 9.16043V11.0455H148.243V9.16043H157.773ZM163.027 11.1578L159.85 20.8396H157.291L161.631 9.16043H163.259L163.027 11.1578ZM165.666 20.8396L162.481 11.1578L162.225 9.16043H163.869L168.233 20.8396H165.666ZM165.521 16.492V18.377H159.353V16.492H165.521ZM176.824 18.9626V20.8396H170.944V18.9626H176.824ZM171.722 9.16043V20.8396H169.316V9.16043H171.722Z" stroke="black" mask="url(#path-1-outside-1_3418_16630)"/>
<path d="M49.1983 21.4212V17.531C49.1983 16.7906 49.0227 16.5647 48.3827 16.5647H44.5301V21.4086H42.5474V9.80078H48.3952C50.0391 9.80078 51.2438 10.9427 51.2438 12.5114V13.7788C51.2438 14.7576 50.8046 15.2973 50.4658 15.5984C50.8297 15.862 51.2438 16.3765 51.2438 17.28V21.4212H49.1983ZM49.1983 12.3608C49.1983 11.9467 48.8344 11.5576 48.4956 11.5576H44.5301V14.6447H48.2823C49.0227 14.6447 49.1983 14.4439 49.1983 13.7412V12.3608Z" fill="black"/>
<path d="M60.2918 21.421H56.8032C55.1593 21.421 53.9546 20.2791 53.9546 18.7104V12.4987C53.9546 10.93 55.1593 9.78809 56.8032 9.78809H60.2918C61.9358 9.78809 63.1405 10.93 63.1405 12.4987V18.7104C63.1405 20.2791 61.9358 21.421 60.2918 21.421ZM61.1326 12.3983C61.1326 11.9967 60.7938 11.6579 60.4299 11.6579H56.6652C56.3013 11.6579 55.9624 11.9967 55.9624 12.3983V18.8108C55.9624 19.2124 56.3013 19.5512 56.6652 19.5512H60.4299C60.7938 19.5512 61.1326 19.2124 61.1326 18.8108V12.3983Z" fill="black"/>
<path d="M65.8633 21.4212V9.80078H67.9464V19.5639H73.1543V21.4337H65.8633V21.4212Z" fill="black"/>
<path d="M75.4888 21.4212V9.80078H77.5719V19.5639H82.7798V21.4337H75.4888V21.4212Z" fill="black"/>
<path d="M91.0368 21.4212H87.9497C86.3058 21.4212 85.1011 20.2792 85.1011 18.7106V9.80078H87.1842V18.8235C87.1842 19.2251 87.523 19.5639 87.887 19.5639H91.087C91.4509 19.5639 91.7897 19.2251 91.7897 18.8235V9.80078H93.8728V18.7231C93.8854 20.2792 92.6807 21.4212 91.0368 21.4212Z" fill="black"/>
<path d="M104.339 14.381L102.758 15.6987L104.376 16.8783C105.079 17.3928 105.293 17.8948 105.293 18.8987V21.4085H103.222V19.0744C103.222 18.472 103.197 18.4093 102.858 18.1708L100.775 16.6649L98.9929 18.1708C98.6792 18.4344 98.629 18.5097 98.629 19.1497V21.4085H96.5835V19.0744C96.5835 18.0704 96.7215 17.5559 97.487 16.9034L99.156 15.523L97.5372 14.3183C96.9349 13.9042 96.596 13.4022 96.596 12.3481V9.80063H98.6415V12.3104C98.6415 12.712 98.6666 12.7873 98.9176 12.9881L101.126 14.5693L102.871 13.0634C103.172 12.7999 103.247 12.6618 103.247 12.2979V9.78809H105.318V12.4234C105.33 13.4399 104.941 13.8791 104.339 14.381Z" fill="black"/>
<path d="M16 32C24.8366 32 32 24.8366 32 16C32 7.16344 24.8366 0 16 0C7.16344 0 0 7.16344 0 16C0 24.8366 7.16344 32 16 32Z" fill="#DBEF88"/>
<path d="M8.93506 7.74268H9.58761L25.4496 22.2744V24.2572H8.93506V7.74268Z" fill="black"/>
<path d="M21.4462 17.33C21.898 16.439 22.1615 15.4225 22.1615 14.3433C22.1615 10.6915 19.2 7.72998 15.5482 7.72998C14.2682 7.72998 13.076 8.0939 12.0596 8.72135L21.4462 17.33Z" fill="black"/>
</svg>
